<?xml version="1.0" encoding="UTF-8" standalone="no"?>
<!-- Created with Inkscape (http://www.inkscape.org/) -->

<svg
   version="1.1"
   id="svg1"
   width="329.73334"
   height="402.85333"
   viewBox="0 0 329.73334 402.85333"
   xmlns="http://www.w3.org/2000/svg"
   xmlns:svg="http://www.w3.org/2000/svg">
  <defs
     id="defs1" />
  <g
     id="g1">
    <g
       id="group-R5">
      <path
         id="path2"
         d="M 310.398,439.059 H 242.387 L 190.43,579.441 138.469,439.059 H 70.4531 L 0,629.5 h 51.957 l 54.684,-150.18 54.41,150.18 h 58.758 l 54.414,-150.18 54.406,150.18 h 52.23 L 310.398,439.059"
         style="fill:#273648;fill-opacity:1;fill-rule:nonzero;stroke:none"
         transform="matrix(0.13333333,0,0,-0.13333333,0,402.85333)" />
      <path
         id="path3"
         d="M 447.512,439.059 V 629.5 h 47.879 V 439.059 h -47.879"
         style="fill:#273648;fill-opacity:1;fill-rule:nonzero;stroke:none"
         transform="matrix(0.13333333,0,0,-0.13333333,0,402.85333)" />
      <path
         id="path4"
         d="m 798.445,500.539 c 0,-9.418 -2.539,-18.32 -7.621,-26.66 -5.078,-8.34 -12.871,-15.641 -23.39,-21.891 -10.52,-6.258 -23.664,-11.156 -39.446,-14.687 -15.781,-3.539 -34.465,-5.313 -56.039,-5.313 -11.07,0 -22.402,0.91 -34.004,2.723 -9.98,1.461 -20.953,3.73 -32.922,6.801 -11.972,3.09 -23.578,7.527 -34.824,13.328 l 16.594,38.09 c 9.977,-5.078 19.992,-9.032 30.062,-11.84 10.063,-2.809 19.18,-4.84 27.344,-6.11 9.61,-1.46 18.86,-2.281 27.75,-2.449 27.199,0 47.465,2.449 60.801,7.34 13.328,4.899 19.992,11.34 19.992,19.32 0,5.079 -2.082,8.789 -6.258,11.149 -4.171,2.351 -10.605,3.719 -19.312,4.078 -2,0.191 -5.762,0.41 -11.289,0.691 -5.535,0.27 -12.289,0.582 -20.27,0.942 -7.98,0.371 -16.867,0.738 -26.66,1.097 -9.797,0.364 -19.953,0.821 -30.469,1.34 -10.519,0.551 -20.171,2.012 -28.972,4.364 -8.797,2.359 -16.422,5.757 -22.852,10.199 -6.441,4.449 -11.472,9.898 -15.097,16.328 -3.633,6.441 -5.446,14.012 -5.446,22.711 0,8.711 2.86,16.91 8.571,24.629 5.71,7.699 13.875,14.41 24.488,20.121 10.609,5.73 23.484,10.211 38.633,13.469 15.136,3.269 32.05,4.902 50.73,4.902 11.063,0 22.313,-0.82 33.734,-2.449 9.793,-1.453 20.719,-3.532 32.786,-6.262 12.054,-2.711 23.796,-6.711 35.23,-11.969 l -14.422,-37.543 c -5.625,2.352 -11.965,4.633 -19.043,6.813 -7.074,2.16 -14.465,4.07 -22.172,5.711 -7.714,1.629 -15.507,2.898 -23.39,3.808 -7.895,0.91 -15.469,1.36 -22.723,1.36 -10.879,0 -20.996,-0.5 -30.332,-1.5 -9.344,-0.989 -17.461,-2.5 -24.352,-4.489 -6.89,-2 -12.285,-4.453 -16.179,-7.339 -3.906,-2.903 -5.852,-6.18 -5.852,-9.801 0,-4.723 1.992,-8.25 5.989,-10.61 3.984,-2.363 9.878,-3.722 17.679,-4.082 8.707,-0.359 20.949,-0.91 36.727,-1.629 15.777,-0.73 34.457,-1.539 56.043,-2.449 10.879,-0.551 20.625,-2 29.242,-4.351 8.609,-2.371 15.957,-5.711 22.039,-10.071 6.066,-4.359 10.746,-9.699 14.008,-16.05 3.265,-6.348 4.894,-13.598 4.894,-21.77"
         style="fill:#273648;fill-opacity:1;fill-rule:nonzero;stroke:none"
         transform="matrix(0.13333333,0,0,-0.13333333,0,402.85333)" />
      <path
         id="path5"
         d="m 1110.48,489.129 c -4.71,-8.18 -10.79,-15.649 -18.22,-22.449 -7.44,-6.801 -16.15,-12.75 -26.12,-17.809 -9.98,-5.09 -21.13,-9.043 -33.46,-11.84 -12.34,-2.812 -25.84,-4.222 -40.535,-4.222 -20.86,0 -39.493,2.73 -55.907,8.152 -16.414,5.449 -30.293,12.789 -41.625,22.051 -11.332,9.238 -19.996,19.988 -25.976,32.226 -5.985,12.242 -8.981,25.262 -8.981,39.043 0,13.778 2.996,26.789 8.981,39.039 5.98,12.231 14.644,22.989 25.976,32.231 11.332,9.25 25.211,16.609 41.625,22.039 16.414,5.449 35.047,8.172 55.907,8.172 14.145,0 27.245,-1.321 39.315,-3.953 12.05,-2.629 22.98,-6.348 32.77,-11.149 9.8,-4.808 18.41,-10.43 25.85,-16.871 7.43,-6.449 13.6,-13.469 18.5,-21.078 l -42.98,-21.77 c -2.73,4.539 -6.4,8.797 -11.02,12.789 -4.63,3.981 -10.16,7.43 -16.6,10.329 -6.44,2.902 -13.69,5.222 -21.76,6.941 -8.07,1.719 -16.732,2.59 -25.982,2.59 -13.425,0 -25.164,-1.59 -35.226,-4.762 -10.071,-3.187 -18.414,-7.476 -25.028,-12.918 -6.629,-5.441 -11.617,-11.75 -14.964,-18.91 -3.36,-7.172 -5.036,-14.738 -5.036,-22.719 0,-7.801 1.676,-15.293 5.036,-22.453 3.347,-7.156 8.335,-13.457 14.964,-18.898 6.614,-5.442 14.957,-9.801 25.028,-13.059 10.062,-3.262 21.801,-4.891 35.226,-4.891 9.792,0 18.862,0.95 27.202,2.86 8.34,1.89 15.78,4.48 22.31,7.738 6.53,3.281 12.15,7.07 16.87,11.434 4.71,4.359 8.25,8.968 10.61,13.879 l 43.25,-21.762"
         style="fill:#273648;fill-opacity:1;fill-rule:nonzero;stroke:none"
         transform="matrix(0.13333333,0,0,-0.13333333,0,402.85333)" />
      <path
         id="path6"
         d="m 1376.53,534.281 c 0,8.168 -1.58,15.91 -4.77,23.258 -3.16,7.352 -7.98,13.832 -14.41,19.449 -6.45,5.633 -14.51,10.071 -24.21,13.332 -9.7,3.27 -21.01,4.899 -33.88,4.899 -12.87,0 -24.17,-1.629 -33.86,-4.899 -9.7,-3.261 -17.77,-7.699 -24.2,-13.332 -6.44,-5.617 -11.25,-12.097 -14.42,-19.449 -3.18,-7.348 -4.76,-15.09 -4.76,-23.258 0,-8.16 1.58,-15.922 4.76,-23.261 3.17,-7.34 7.98,-13.829 14.42,-19.461 6.43,-5.61 14.5,-10.059 24.2,-13.321 9.69,-3.258 20.99,-4.886 33.86,-4.886 12.87,0 24.18,1.628 33.88,4.886 9.7,3.262 17.76,7.711 24.21,13.321 6.43,5.632 11.25,12.121 14.41,19.461 3.19,7.339 4.77,15.101 4.77,23.261 z m 50.33,0 c 0,-13.781 -2.91,-26.801 -8.71,-39.043 -5.81,-12.238 -14.19,-22.988 -25.16,-32.226 -10.98,-9.262 -24.35,-16.602 -40.13,-22.051 -15.78,-5.422 -33.64,-8.152 -53.6,-8.152 -19.95,0 -37.81,2.73 -53.58,8.152 -15.78,5.449 -29.15,12.789 -40.12,22.051 -10.98,9.238 -19.36,19.988 -25.16,32.226 -5.81,12.242 -8.71,25.262 -8.71,39.043 0,13.778 2.9,26.789 8.71,39.039 5.8,12.231 14.18,22.989 25.16,32.231 10.97,9.25 24.34,16.609 40.12,22.039 15.77,5.449 33.63,8.172 53.58,8.172 19.96,0 37.82,-2.723 53.6,-8.172 15.78,-5.43 29.15,-12.789 40.13,-22.039 10.97,-9.242 19.35,-20 25.16,-32.231 5.8,-12.25 8.71,-25.261 8.71,-39.039"
         style="fill:#273648;fill-opacity:1;fill-rule:nonzero;stroke:none"
         transform="matrix(0.13333333,0,0,-0.13333333,0,402.85333)" />
      <path
         id="path7"
         d="M 1684.48,439.059 1546.83,572.09 V 439.059 h -47.88 V 629.5 h 47.88 L 1684.48,496.461 V 629.5 h 47.89 V 439.059 h -47.89"
         style="fill:#273648;fill-opacity:1;fill-rule:nonzero;stroke:none"
         transform="matrix(0.13333333,0,0,-0.13333333,0,402.85333)" />
      <path
         id="path8"
         d="m 2035.42,500.539 c 0,-9.418 -2.54,-18.32 -7.62,-26.66 -5.08,-8.34 -12.88,-15.641 -23.4,-21.891 -10.52,-6.258 -23.66,-11.156 -39.44,-14.687 -15.79,-3.539 -34.46,-5.313 -56.05,-5.313 -11.06,0 -22.4,0.91 -34,2.723 -9.97,1.461 -20.95,3.73 -32.92,6.801 -11.98,3.09 -23.58,7.527 -34.82,13.328 l 16.59,38.09 c 9.98,-5.078 19.99,-9.032 30.06,-11.84 10.07,-2.809 19.18,-4.84 27.34,-6.11 9.62,-1.46 18.86,-2.281 27.75,-2.449 27.21,0 47.48,2.449 60.81,7.34 13.33,4.899 19.99,11.34 19.99,19.32 0,5.079 -2.09,8.789 -6.25,11.149 -4.18,2.351 -10.61,3.719 -19.32,4.078 -2,0.191 -5.76,0.41 -11.29,0.691 -5.54,0.27 -12.29,0.582 -20.27,0.942 -7.99,0.371 -16.86,0.738 -26.66,1.097 -9.79,0.364 -19.95,0.821 -30.47,1.34 -10.51,0.551 -20.18,2.012 -28.97,4.364 -8.8,2.359 -16.42,5.757 -22.85,10.199 -6.45,4.449 -11.47,9.898 -15.1,16.328 -3.63,6.441 -5.45,14.012 -5.45,22.711 0,8.711 2.86,16.91 8.59,24.629 5.7,7.699 13.86,14.41 24.48,20.121 10.6,5.73 23.47,10.211 38.62,13.469 15.15,3.269 32.05,4.902 50.74,4.902 11.06,0 22.31,-0.82 33.72,-2.449 9.81,-1.453 20.74,-3.532 32.8,-6.262 12.06,-2.711 23.8,-6.711 35.22,-11.969 l -14.42,-37.543 c -5.62,2.352 -11.97,4.633 -19.04,6.813 -7.08,2.16 -14.46,4.07 -22.16,5.711 -7.72,1.629 -15.51,2.898 -23.41,3.808 -7.88,0.91 -15.45,1.36 -22.71,1.36 -10.89,0 -20.99,-0.5 -30.34,-1.5 -9.34,-0.989 -17.45,-2.5 -24.34,-4.489 -6.89,-2 -12.29,-4.453 -16.2,-7.339 -3.89,-2.903 -5.84,-6.18 -5.84,-9.801 0,-4.723 2,-8.25 5.98,-10.61 3.99,-2.363 9.89,-3.722 17.69,-4.082 8.7,-0.359 20.95,-0.91 36.72,-1.629 15.79,-0.73 34.47,-1.539 56.05,-2.449 10.88,-0.551 20.62,-2 29.25,-4.351 8.6,-2.371 15.95,-5.711 22.03,-10.071 6.07,-4.359 10.74,-9.699 14,-16.05 3.27,-6.348 4.91,-13.598 4.91,-21.77"
         style="fill:#273648;fill-opacity:1;fill-rule:nonzero;stroke:none"
         transform="matrix(0.13333333,0,0,-0.13333333,0,402.85333)" />
      <path
         id="path9"
         d="M 2106.15,439.059 V 629.5 h 47.88 V 439.059 h -47.88"
         style="fill:#273648;fill-opacity:1;fill-rule:nonzero;stroke:none"
         transform="matrix(0.13333333,0,0,-0.13333333,0,402.85333)" />
      <path
         id="path10"
         d="M 2421.19,439.059 2283.52,572.09 V 439.059 h -47.87 V 629.5 h 47.87 L 2421.19,496.461 V 629.5 h 47.87 V 439.059 h -47.87"
         style="fill:#273648;fill-opacity:1;fill-rule:nonzero;stroke:none"
         transform="matrix(0.13333333,0,0,-0.13333333,0,402.85333)" />
      <path
         id="path11"
         d="m 205.574,72.0898 c 11.035,0 20.039,7.0313 20.039,18.6094 v 38.0898 c 0,6.992 -7.468,14.43 -13.023,14.43 H 147.441 V 72.0898 Z m -3.472,133.8512 c 8.984,0 17.476,6.989 17.476,15.969 v 38.621 c 0,16.989 -9.976,18.508 -25.015,18.508 H 147.441 V 205.941 Z M 3.67188,57.7305 39.2383,72.6484 V 276.539 L 3.67188,291.422 V 350.68 H 258.672 c 32.09,0 65.676,-16.969 65.676,-55.602 v -50.566 c 0,-27.602 -11.528,-56.153 -42.102,-63.653 -1.023,0 -1.523,-0.98 -1.523,-1.531 0,-0.988 0.5,-2.008 1.523,-2.476 29.055,-5.524 47.598,-24 47.598,-55.641 V 71.1289 C 329.844,8.48828 282.246,0 243.684,0 H 3.67188 v 57.7305"
         style="fill:#273648;fill-opacity:1;fill-rule:nonzero;stroke:none"
         transform="matrix(0.13333333,0,0,-0.13333333,0,402.85333)" />
      <path
         id="path12"
         d="m 524.355,73.1406 35.086,-10.039 V 0.941406 H 379.094 V 58.1992 l 37.547,14.9414 V 280.059 l -37.547,14.921 v 55.7 h 180.347 v -55.7 L 525.352,280.059 524.355,73.1406"
         style="fill:#273648;fill-opacity:1;fill-rule:nonzero;stroke:none"
         transform="matrix(0.13333333,0,0,-0.13333333,0,402.85333)" />
      <path
         id="path13"
         d="m 607.656,58.1992 35.02,14.9414 V 279.039 l -35.02,14.922 V 350.68 H 779.973 V 293.961 L 750.398,279.039 V 192.34 l 89.731,86.699 -24.594,14.922 v 56.719 h 149.328 v -71.399 l -30.566,-0.242 -83.184,-77.66 99.688,-129.4298 30.105,-0.25 V 0.488281 H 806.047 V 58.1992 l 21.551,14.9414 -77.2,94.1404 V 73.1406 L 773.484,58.1992 V 0.488281 H 607.656 V 58.1992"
         style="fill:#273648;fill-opacity:1;fill-rule:nonzero;stroke:none"
         transform="matrix(0.13333333,0,0,-0.13333333,0,402.85333)" />
      <path
         id="path14"
         d="m 1028.13,57.7305 34.56,14.9179 V 279.551 l -34.56,14.937 v 56.723 h 284.96 l 6.05,-137.313 h -67.07 l -10.02,65.653 h -71.1 v -65.653 h 55.09 V 145.27 h -55.09 V 72.6484 h 74.61 l 13.94,65.5896 h 61.11 L 1314.1,0 h -285.97 v 57.7305"
         style="fill:#273648;fill-opacity:1;fill-rule:nonzero;stroke:none"
         transform="matrix(0.13333333,0,0,-0.13333333,0,402.85333)" />
      <path
         id="path15"
         d="m 1634.49,0 h -178.36 v 57.7305 l 34.55,14.9179 V 279.551 l -34.55,14.937 v 56.723 h 285.08 l 6.05,-137.313 h -67.15 l -10.03,65.653 h -71.16 v -65.653 h 55.1 V 145.27 h -55.1 V 72.6484 l 35.57,-13.5468 V 0"
         style="fill:#273648;fill-opacity:1;fill-rule:nonzero;stroke:none"
         transform="matrix(0.13333333,0,0,-0.13333333,0,402.85333)" />
      <path
         id="path16"
         d="m 1789.47,57.7305 34.51,14.9179 V 279.551 l -34.51,14.937 v 56.723 h 285.07 l 5.99,-137.313 h -67.15 l -9.95,65.653 h -71.19 v -65.653 h 55.15 V 145.27 h -55.15 V 72.6484 h 74.67 l 14.01,65.5896 h 61.16 L 2075.53,0 h -286.06 v 57.7305"
         style="fill:#273648;fill-opacity:1;fill-rule:nonzero;stroke:none"
         transform="matrix(0.13333333,0,0,-0.13333333,0,402.85333)" />
      <path
         id="path17"
         d="m 2273.06,72.0898 h 62.12 c 20.59,0 28.58,8.9805 28.58,26.5821 V 258.531 c 0,8.008 -6.01,16.489 -14.01,18.52 h -76.69 z m -142.23,-15.8984 35.04,14.9375 V 278.078 l -36.12,14.871 v 57.731 h 262.59 c 54.71,0 80.68,-38.051 80.68,-82.711 V 92.6289 c 0,-40.4805 -26.56,-92.140619 -86.72,-92.140619 H 2130.83 V 56.1914"
         style="fill:#273648;fill-opacity:1;fill-rule:nonzero;stroke:none"
         transform="matrix(0.13333333,0,0,-0.13333333,0,402.85333)" />
      <path
         id="path18"
         d="m 1236.33,1030.04 c -506.346,0 -918.287,411.95 -918.287,918.31 0,506.36 411.941,918.31 918.287,918.31 506.57,0 918.67,-411.95 918.67,-918.31 0,-506.36 -412.1,-918.31 -918.67,-918.31 z m 1073.23,927.76 c 0.04,8.99 -6.23,14.84 -14.85,14.84 -48.68,0 -55.48,36.63 -56.41,46.58 -0.55,6.58 -2.21,48.35 49.11,55.74 8.55,1.22 13.86,7.9 12.63,16.77 -1.09,7.83 -1.58,10.89 -2.67,18.63 -1.31,8.95 -8.34,13.82 -16.83,12.61 -48.44,-6.97 -60.25,28.7 -62.52,38.24 -1.6,6.8 -8.79,47.49 40.7,62.02 8.24,2.42 12.58,9.78 10.06,18.37 -2.17,7.59 -3.1,10.56 -5.34,18.06 -2.49,8.72 -10.16,12.5 -18.42,10.1 -46.59,-13.69 -63.43,19.35 -67.24,28.72 -2.33,5.9 -15.95,45.78 31.41,67.38 7.85,3.6 11.06,11.5 7.36,19.65 -3.21,7.21 -4.53,10.01 -7.8,17.13 -3.75,8.23 -11.92,10.93 -19.68,7.35 -44.27,-20.2 -65.7,10.21 -70.72,18.94 -3.18,5.66 -22.17,42.99 21.51,71.13 7.24,4.65 9.33,12.92 4.52,20.46 -4.27,6.67 -5.97,9.27 -10.21,15.86 -4.86,7.59 -13.3,9.09 -20.49,4.46 -41.02,-26.37 -66.6,0.93 -72.74,8.75 -4.1,5.34 -27.87,39.5 11.23,73.39 6.5,5.64 7.41,14.13 1.54,20.92 -5.17,5.97 -7.22,8.31 -12.36,14.23 -5.92,6.82 -14.44,7.12 -20.95,1.5 -36.89,-31.99 -66.04,-8.5 -73.22,-1.67 -4.91,4.77 -33.15,35.16 0.69,74.21 5.64,6.52 5.3,15.04 -1.48,20.92 -5.91,5.21 -8.32,7.21 -14.22,12.33 -6.82,5.93 -15.31,5.01 -20.95,-1.49 -31.93,-36.83 -64.09,-17.91 -72.22,-12.09 -5.44,3.91 -37.92,30 -9.96,73.58 4.68,7.26 3.14,15.62 -4.37,20.48 -6.61,4.32 -9.25,5.96 -15.85,10.22 -7.6,4.87 -15.91,2.76 -20.55,-4.47 -26.23,-40.88 -60.64,-26.93 -69.64,-22.32 -5.64,2.96 -42.03,24.13 -20.39,71.49 3.56,7.84 0.88,15.9 -7.3,19.64 -7.15,3.31 -10.01,4.58 -17.16,7.86 -8.16,3.72 -16.1,0.45 -19.63,-7.37 -20.14,-44.08 -56.04,-35.33 -65.67,-32 -5.86,2.01 -45.2,17.74 -30.51,67.84 2.46,8.28 -1.39,15.89 -10,18.42 -7.54,2.27 -10.56,3.1 -18.11,5.31 -8.65,2.57 -15.99,-1.8 -18.4,-10.04 -13.64,-46.46 -50.36,-42.94 -60.44,-41.05 -5.94,1.15 -47.26,11.09 -39.83,62.82 1.25,8.59 -3.63,15.53 -12.51,16.84 -7.85,1.16 -10.91,1.57 -18.66,2.68 -8.94,1.29 -15.6,-4.07 -16.81,-12.58 -6.99,-48.54 -44.81,-49.74 -54.52,-49.23 -0.27,0.02 -0.5,0.05 -0.88,0.09 h -0.03 c -9.45,0.8 -47.02,7.16 -47.02,56.47 0,8.59 -5.83,14.85 -14.84,14.85 -7.9,0 -10.93,0 -18.84,0 -8.97,0 -14.82,-6.26 -14.82,-14.85 0,-49.04 -37.15,-55.58 -46.81,-56.47 -0.29,0 -0.56,-0.04 -0.96,-0.07 0,0 0,0 -0.02,0 -9.44,-0.53 -47.55,0.4 -54.55,49.21 -1.22,8.51 -7.92,13.87 -16.82,12.6 -7.82,-1.13 -10.82,-1.57 -18.62,-2.68 -8.9,-1.27 -13.8,-8.32 -12.59,-16.81 7.33,-51.01 -32.51,-61.39 -39.44,-62.81 -9.54,-1.88 -47.005,-6.06 -60.805,40.99 -2.43,8.24 -9.805,12.6 -18.407,10.08 -7.59,-2.25 -10.508,-3.09 -18.078,-5.29 -8.621,-2.54 -12.461,-10.2 -10.066,-18.45 14.676,-49.93 -24.27,-65.73 -30.293,-67.85 -9.524,-3.27 -45.598,-12.26 -65.813,32.01 -3.554,7.79 -11.504,11.06 -19.675,7.34 -7.2,-3.31 -9.942,-4.56 -17.141,-7.85 -8.152,-3.71 -10.859,-11.84 -7.324,-19.65 21.496,-47.07 -14.246,-68.27 -20.235,-71.42 -8.758,-4.53 -43.386,-18.84 -69.793,22.25 -4.629,7.22 -12.941,9.34 -20.519,4.47 -6.641,-4.28 -9.199,-5.93 -15.828,-10.19 -7.551,-4.85 -9.121,-13.28 -4.426,-20.51 26.582,-41.4 -1.465,-67.06 -8.984,-72.87 -0.079,-0.08 -0.157,-0.12 -0.235,-0.19 -0.223,-0.15 -0.359,-0.27 -0.574,-0.42 -7.785,-5.62 -40.188,-25.12 -72.356,11.99 -5.625,6.5 -14.148,7.39 -20.925,1.49 -5.989,-5.13 -8.282,-7.14 -14.258,-12.31 -6.797,-5.88 -7.129,-14.45 -1.465,-20.94 33.887,-39.13 5.527,-69.53 0.664,-74.24 -7.148,-6.81 -36.309,-30.29 -73.203,1.7 -6.516,5.62 -15.059,5.28 -20.957,-1.5 -5.188,-5.96 -7.149,-8.26 -12.336,-14.23 -5.898,-6.79 -4.969,-15.31 1.516,-20.92 38.906,-33.73 15.632,-67.66 11.336,-73.29 -5.977,-7.67 -31.59,-35.33 -72.813,-8.85 -7.234,4.63 -15.664,3.11 -20.527,-4.46 -4.266,-6.66 -5.887,-9.19 -10.176,-15.83 -4.871,-7.57 -2.754,-15.88 4.473,-20.52 41.32,-26.58 26.621,-61.47 22.16,-69.96 -0.098,-0.14 -0.157,-0.3 -0.254,-0.47 -0.09,-0.14 -0.156,-0.27 -0.215,-0.41 -4.738,-8.28 -26.125,-39.61 -70.852,-19.2 -7.812,3.58 -15.937,0.84 -19.707,-7.33 -3.25,-7.19 -4.5,-9.94 -7.781,-17.14 -3.769,-8.19 -0.5,-16.09 7.344,-19.66 43.855,-20.01 35.449,-55.59 32.078,-65.48 l 0.168,0.58 c 0,0 -14.063,-47.04 -68.125,-31.18 -8.273,2.43 -15.918,-1.4 -18.457,-10.04 -2.219,-7.58 -3.066,-10.52 -5.285,-18.1 -2.547,-8.63 1.816,-15.98 10.09,-18.41 47,-13.83 42.851,-51.28 40.957,-60.82 -0.051,-0.23 -0.098,-0.47 -0.188,-0.86 0,-0.02 -0.008,-0.06 -0.019,-0.08 -2.149,-9.2 -13.817,-45.47 -62.578,-38.47 -8.516,1.23 -15.555,-3.69 -16.836,-12.54 -1.102,-7.84 -1.543,-10.86 -2.657,-18.72 -1.269,-8.88 4.063,-15.52 12.59,-16.78 48.387,-6.93 49.727,-44.46 49.238,-54.23 -0.402,-6.83 -4.835,-48.07 -56.562,-48.05 -8.613,-0.02 -14.875,-5.89 -14.895,-14.83 0.02,-7.92 0.02,-10.96 0.059,-18.91 -0.039,-8.96 6.23,-14.79 14.836,-14.82 48.973,0.03 55.566,-37.04 56.445,-46.73 0.606,-6.94 1.942,-48.22 -49.121,-55.56 -8.547,-1.24 -13.887,-7.92 -12.637,-16.79 1.161,-7.86 1.602,-10.83 2.743,-18.69 1.242,-8.91 8.254,-13.76 16.808,-12.58 51.024,7.39 61.375,-32.57 62.754,-39.44 1.883,-9.54 6.055,-46.97 -40.937,-60.76 -8.301,-2.44 -12.657,-9.85 -10.149,-18.41 2.258,-7.59 3.125,-10.54 5.363,-18.1 2.52,-8.65 10.145,-12.5 18.446,-10.09 49.785,14.63 65.597,-24.01 67.793,-30.23 3.254,-9.37 12.422,-45.58 -31.973,-65.84 -7.82,-3.57 -11.094,-11.51 -7.383,-19.64 3.321,-7.23 4.59,-9.99 7.871,-17.18 3.731,-8.18 11.836,-10.9 19.707,-7.36 46.887,21.47 68.079,-14.01 71.329,-20.1 4.511,-8.71 18.984,-43.44 -22.196,-69.86 -7.258,-4.69 -9.316,-13.03 -4.531,-20.55 4.336,-6.66 5.957,-9.24 10.262,-15.9 4.855,-7.54 13.215,-9.06 20.527,-4.45 44.199,28.45 70.383,-5.45 73.684,-10.12 5.984,-8.44 24.297,-40.27 -12.219,-71.95 -6.543,-5.69 -7.422,-14.16 -1.59,-20.98 5.234,-5.96 7.215,-8.26 12.402,-14.22 5.868,-6.81 14.422,-7.11 20.977,-1.5 39.676,34.39 70.418,4.65 74.383,0.45 7.09,-7.46 29.785,-36.43 -1.844,-72.97 -5.695,-6.53 -5.332,-15.08 1.387,-20.96 6.035,-5.17 8.34,-7.17 14.336,-12.34 6.746,-5.88 15.254,-5 20.925,1.5 34.211,39.53 68.711,14.88 73.528,11.15 7.937,-6.32 34.793,-31.77 8.582,-72.59 -4.688,-7.29 -3.113,-15.71 4.406,-20.55 6.68,-4.28 9.227,-5.94 15.887,-10.18 7.558,-4.84 15.82,-2.75 20.547,4.48 28.242,44.02 65.91,24.47 71.183,21.44 8.809,-5.1 38.946,-26.52 18.817,-70.579 -3.594,-7.882 -0.84,-15.961 7.285,-19.691 7.238,-3.32 9.98,-4.551 17.18,-7.891 8.171,-3.668 16.042,-0.449 19.695,7.422 21.68,47.539 61.719,33.609 67.414,31.349 9.394,-3.83 42.344,-20.689 28.652,-67.169 -2.433,-8.32 1.465,-15.981 10.039,-18.52 7.617,-2.222 10.535,-3.043 18.125,-5.293 8.602,-2.519 15.977,1.821 18.438,10.102 14.804,50.539 56.994,41.91 62.414,40.602 10.08,-2.543 44.66,-14.653 37.79,-62.403 -1.24,-8.551 3.7,-15.578 12.55,-16.871 7.83,-1.098 10.85,-1.527 18.69,-2.637 8.88,-1.312 15.57,4.039 16.81,12.618 7.42,51.89 50.04,49.613 55.9,49.062 10.18,-1.019 46.43,-7.93 46.43,-56.43 0,-8.57 5.85,-14.839 14.82,-14.839 7.91,0 10.94,0 18.84,0 9.01,0 14.84,6.269 14.84,14.839 0,49.258 37.57,55.668 46.96,56.489 0.09,0 0.12,0 0.16,0.019 0.36,0 0.59,0 0.81,0.039 9.66,0.5 47.5,-0.668 54.5,-49.238 1.23,-8.52 7.89,-13.871 16.79,-12.602 7.86,1.153 10.82,1.582 18.64,2.68 8.89,1.293 13.82,8.32 12.57,16.832 -6.98,48.481 28.83,60.281 38.25,62.559 6.86,1.562 47.48,8.711 62.02,-40.758 2.41,-8.242 9.79,-12.582 18.4,-10.082 7.59,2.23 10.46,3.09 18.08,5.312 8.61,2.539 12.49,10.2 10.06,18.438 -13.8,46.91 19.78,63.691 28.93,67.361 6.34,2.46 45.68,15.53 67.22,-31.521 3.53,-7.809 11.47,-11.071 19.63,-7.36 7.19,3.34 9.94,4.571 17.14,7.891 8.2,3.711 10.88,11.809 7.32,19.648 -20.32,44.512 10.53,65.862 19.07,70.762 5.95,3.34 43.04,21.87 70.98,-21.62 4.65,-7.23 12.95,-9.32 20.5,-4.46 6.63,4.26 9.19,5.9 15.85,10.2 7.6,4.84 9.11,13.26 4.47,20.49 -26.38,41.05 0.89,66.62 8.73,72.75 5.21,4.02 39.42,27.91 73.38,-11.25 5.64,-6.5 14.19,-7.4 20.95,-1.5 5.99,5.15 8.25,7.11 14.22,12.34 6.8,5.88 7.14,14.4 1.48,20.9 -31.89,36.86 -8.65,65.94 -1.73,73.16 4.44,4.65 34.96,33.48 74.29,-0.6 6.5,-5.63 15.05,-5.29 20.97,1.48 5.17,5.96 7.13,8.26 12.35,14.22 5.87,6.82 4.98,15.31 -1.55,20.96 -36.86,31.91 -17.9,64.08 -12.13,72.19 3.78,5.27 29.88,38.02 73.61,9.94 7.23,-4.65 15.67,-3.11 20.53,4.43 4.27,6.64 5.88,9.2 10.17,15.84 4.88,7.6 2.78,15.9 -4.48,20.51 -41.02,26.4 -26.8,60.94 -22.3,69.74 3.09,5.86 24.25,41.88 71.48,20.32 7.84,-3.56 15.92,-0.86 19.67,7.36 3.29,7.16 4.55,9.89 7.85,17.11 3.75,8.19 0.44,16.1 -7.37,19.67 -51.28,23.42 -31.12,68.16 -31.12,68.16 4.31,10.23 21.46,41.36 66.91,28.01 8.3,-2.45 15.91,1.42 18.42,10.05 2.26,7.52 3.1,10.51 5.34,18.02 2.52,8.65 -1.85,16.05 -10.11,18.44 -46.98,13.82 -42.84,51.24 -40.92,60.8 1.42,6.89 11.81,46.84 62.79,39.48 8.54,-1.21 15.51,3.64 16.83,12.52 1.1,7.83 1.52,10.89 2.64,18.65 1.32,8.94 -4.1,15.59 -12.61,16.82 -48.6,7.01 -49.7,44.85 -49.18,54.45 0,0.18 0,0.37 0.02,0.6 0.03,0.13 0.06,0.22 0.06,0.33 0.85,9.53 7.26,46.98 56.41,46.98 8.67,0 14.85,5.81 14.85,14.76 0.04,7.93 0,11.02 0,18.89"
         style="fill:#a40f31;fill-opacity:1;fill-rule:nonzero;stroke:none"
         transform="matrix(0.13333333,0,0,-0.13333333,0,402.85333)" />
      <path
         id="path19"
         d="m 1268.3,2207.59 c -10.11,5.37 -20.98,7.93 -31.67,8.01 -10.71,-0.08 -21.55,-2.64 -31.67,-8.01 -33.4,-17.82 -46.08,-59.35 -28.32,-92.84 12.22,-22.95 35.62,-36.14 59.91,-36.4 h 0.02 c 0.05,0 0.06,0 0.06,0 0.03,0 0.04,0 0.04,0 h 0.03 c 24.33,0.26 47.71,13.45 59.93,36.4 17.75,33.49 5.07,75.02 -28.33,92.84"
         style="fill:#a40f31;fill-opacity:1;fill-rule:nonzero;stroke:none"
         transform="matrix(0.13333333,0,0,-0.13333333,0,402.85333)" />
      <path
         id="path20"
         d="m 1496.23,1728.06 c -10.85,0 -21.88,-2.59 -32.12,-8.05 -33.47,-17.75 -46.17,-59.29 -28.4,-92.81 12.31,-23.17 36.08,-36.39 60.61,-36.39 10.87,0 21.92,2.59 32.15,8.04 33.55,17.8 46.24,59.3 28.44,92.81 -12.34,23.19 -36.11,36.4 -60.68,36.4"
         style="fill:#a40f31;fill-opacity:1;fill-rule:nonzero;stroke:none"
         transform="matrix(0.13333333,0,0,-0.13333333,0,402.85333)" />
      <path
         id="path21"
         d="m 975.484,1728.06 c -10.859,0 -21.894,-2.59 -32.148,-8.05 -33.457,-17.75 -46.152,-59.29 -28.398,-92.81 12.312,-23.17 36.074,-36.39 60.625,-36.39 10.847,0 21.894,2.59 32.127,8.04 33.56,17.8 46.24,59.3 28.45,92.81 -12.35,23.19 -36.12,36.4 -60.656,36.4"
         style="fill:#a40f31;fill-opacity:1;fill-rule:nonzero;stroke:none"
         transform="matrix(0.13333333,0,0,-0.13333333,0,402.85333)" />
      <path
         id="path22"
         d="m 716.344,2215.62 c -10.871,0 -21.856,-2.58 -32.149,-8.03 -33.39,-17.82 -46.074,-59.35 -28.32,-92.84 12.344,-23.17 36.055,-36.4 60.625,-36.4 10.859,0 21.855,2.58 32.129,8.01 33.484,17.81 46.133,59.36 28.387,92.82 -12.332,23.2 -36.102,36.44 -60.672,36.44"
         style="fill:#a40f31;fill-opacity:1;fill-rule:nonzero;stroke:none"
         transform="matrix(0.13333333,0,0,-0.13333333,0,402.85333)" />
      <path
         id="path23"
         d="m 1913.79,2062.34 c -17.7,-33.33 -44.56,-58.68 -75.84,-74.8 -52.56,-31.78 -95.86,-75.54 -125.02,-130.47 -12.53,-23.58 -21.89,-48.19 -28.26,-73.46 -21.07,32 -49.68,57.96 -83.78,75.8 -29.09,17.79 -54.01,39.19 -74.53,63.92 5.27,8.08 10.25,16.41 14.84,25.02 29.07,54.77 41.18,114.98 38.19,176.27 -4.2,34.99 1.73,71.61 19.45,105.06 46.25,86.98 154.22,119.95 241.19,73.8 86.94,-46.22 119.98,-154.14 73.76,-241.14 z M 1580,1502.01 c -26.67,-14.16 -55.3,-20.86 -83.53,-20.86 -63.85,0 -125.62,34.34 -157.59,94.62 -17.71,33.31 -23.82,69.69 -19.59,104.56 3.07,61.43 -9,121.84 -38.18,176.74 -12.42,23.32 -27.37,44.62 -44.48,63.87 -17.1,-19.25 -32.08,-40.55 -44.44,-63.87 -12.57,-23.58 -21.93,-48.19 -28.3,-73.46 -21.05,32 -49.66,57.96 -83.77,75.8 -29.1,17.79 -54.01,39.19 -74.53,63.92 5.26,8.08 10.25,16.41 14.84,25.02 29.06,54.77 41.17,114.98 38.2,176.27 -4.25,34.99 1.71,71.61 19.44,105.06 32.07,60.32 93.82,94.64 157.68,94.64 0.28,0 0.58,0 0.88,0 0.3,0 0.6,0 0.9,0 63.83,0 125.59,-34.32 157.68,-94.64 17.71,-33.45 23.65,-70.07 19.41,-105.06 -2.97,-61.29 9.14,-121.5 38.2,-176.27 29.2,-54.78 72.36,-98.48 124.84,-130.27 31.33,-16.08 58.2,-41.49 76.04,-74.96 46.21,-86.96 13.15,-194.91 -73.7,-241.11 z m -520.78,0 c -26.65,-14.16 -55.27,-20.86 -83.501,-20.86 -63.86,0 -125.637,34.34 -157.61,94.62 -17.703,33.31 -23.828,69.69 -19.609,104.56 3.078,61.43 -8.984,121.84 -38.191,176.74 -29.141,54.93 -72.454,98.69 -124.981,130.47 -31.289,16.12 -58.156,41.47 -75.851,74.8 -46.231,87 -13.184,194.92 73.769,241.14 26.66,14.15 55.293,20.86 83.516,20.86 63.82,0 125.578,-34.34 157.668,-94.66 17.722,-33.45 23.652,-70.07 19.433,-105.06 -2.98,-61.29 9.129,-121.5 38.184,-176.27 29.187,-54.78 72.363,-98.48 124.813,-130.27 31.37,-16.08 58.24,-41.49 76.06,-74.96 46.23,-86.96 13.18,-194.91 -73.7,-241.11 z m 177.11,1313.07 c -477.916,0 -866.725,-388.81 -866.725,-866.73 0,-477.92 388.809,-866.77 866.725,-866.77 478.14,0 867.11,388.85 867.11,866.77 0,477.92 -388.97,866.73 -867.11,866.73"
         style="fill:#a40f31;fill-opacity:1;fill-rule:nonzero;stroke:none"
         transform="matrix(0.13333333,0,0,-0.13333333,0,402.85333)" />
      <path
         id="path24"
         d="m 1789.05,2207.59 c -33.47,17.79 -75,5.06 -92.81,-28.41 -17.73,-33.46 -5.07,-75.01 28.39,-92.82 33.53,-17.73 74.99,-5.02 92.75,28.39 17.74,33.49 5.09,75.02 -28.33,92.84"
         style="fill:#a40f31;fill-opacity:1;fill-rule:nonzero;stroke:none"
         transform="matrix(0.13333333,0,0,-0.13333333,0,402.85333)" />
    </g>
  </g>
</svg>
